<svg height="464pt" opacity="0.5" viewBox="-16 0 464 464" width="464pt" xmlns="http://www.w3.org/2000/svg"><path d="m352 464h-248c-13.253906 0-24-10.746094-24-24v-168h-48v-248c0-13.253906 10.746094-24 24-24h264c17.671875 0 32 14.328125 32 32zm0 0" fill="#fbedbf"/><path d="m200 224v-16l-48 40 48 40v-16h232v-48zm0 0" fill="#99d8aa"/><path d="m104 464c13.253906 0 24-10.746094 24-24v-24h240c13.253906 0 24 10.746094 24 24s-10.746094 24-24 24zm0 0" fill="#fbd699"/><path d="m80 272h-48v-248c0-13.253906 10.746094-24 24-24s24 10.746094 24 24zm0 0" fill="#f7ba61"/><g fill="#eee1b5"><path d="m120 40h80v16h-80zm0 0"/><path d="m120 72h80v16h-80zm0 0"/><path d="m152 344h160v16h-160zm0 0"/><path d="m152 376h160v16h-160zm0 0"/><path d="m264 312h48v16h-48zm0 0"/></g><path d="m280 152-48-40v16h-232v48h232v16zm0 0" fill="#4799cf"/></svg>